<svg xmlns="http://www.w3.org/2000/svg" viewBox="0 0 100 100" width="100" height="100">
  <!-- Guitar pick shape -->
  <path d="M50 3 C68 3, 90 16, 94 38 C98 60, 74 88, 50 97 C26 88, 2 60, 6 38 C10 16, 32 3, 50 3 Z" fill="#c06830" />
  <!-- Inner shadow ring for depth -->
  <path d="M50 8 C66 8, 85 19, 89 39 C93 57, 71 83, 50 91 C29 83, 7 57, 11 39 C15 19, 34 8, 50 8 Z" fill="none" stroke="#a85628" stroke-width="1" opacity="0.4" />
  <!-- House roof -->
  <polygon points="50,24 30,42 70,42" fill="#f5f0e8" />
  <!-- House body -->
  <rect x="34" y="42" width="32" height="22" rx="1" fill="#f5f0e8" />
  <!-- Door -->
  <rect x="45" y="50" width="10" height="14" rx="1" fill="#c06830" />
  <!-- Door knob -->
  <circle cx="53" cy="58" r="1.2" fill="#f5f0e8" />
  <!-- Window left -->
  <rect x="36" y="46" width="7" height="6" rx="1" fill="#c06830" opacity="0.6" />
  <!-- Window right (none - keep it simple) -->
  <!-- Music notes floating from chimney area -->
  <text x="62" y="30" font-family="serif" font-size="14" fill="#f5f0e8" opacity="0.9">&#9834;</text>
  <text x="70" y="22" font-family="serif" font-size="10" fill="#f5f0e8" opacity="0.7">&#9835;</text>
</svg>
