<svg xmlns="http://www.w3.org/2000/svg" viewBox="0 0 100 100" width="100" height="100">
  <!-- Guitar pick shape -->
  <path d="M50 5 C65 5, 85 15, 90 35 C95 55, 75 85, 50 95 C25 85, 5 55, 10 35 C15 15, 35 5, 50 5 Z" fill="#c06830" />
  <!-- House/porch silhouette -->
  <path d="M50 28 L32 42 L32 62 L42 62 L42 52 L58 52 L58 62 L68 62 L68 42 Z" fill="#f5f0e8" />
  <!-- Porch railing -->
  <line x1="32" y1="56" x2="42" y2="56" stroke="#f5f0e8" stroke-width="1.5" />
  <line x1="58" y1="56" x2="68" y2="56" stroke="#f5f0e8" stroke-width="1.5" />
  <!-- Music note -->
  <circle cx="55" cy="72" r="3.5" fill="#f5f0e8" />
  <line x1="58.5" y1="72" x2="58.5" y2="58" stroke="#f5f0e8" stroke-width="2" />
  <path d="M58.5 58 C58.5 58, 65 56, 65 60" stroke="#f5f0e8" stroke-width="2" fill="none" />
</svg>
